999
ContourCAM MVP sample part (PRD section 7): 100x80 plate, centred 40x30
999
pocket, 4x dia-6 holes 10mm in from each corner. Units: millimetres.
0
SECTION
2
HEADER
9
$INSUNITS
70
4
0
ENDSEC
0
SECTION
2
ENTITIES
0
LINE
8
0
10
0.0
20
0.0
11
100.0
21
0.0
0
LINE
8
0
10
100.0
20
0.0
11
100.0
21
80.0
0
LINE
8
0
10
100.0
20
80.0
11
0.0
21
80.0
0
LINE
8
0
10
0.0
20
80.0
11
0.0
21
0.0
0
LINE
8
0
10
30.0
20
25.0
11
70.0
21
25.0
0
LINE
8
0
10
70.0
20
25.0
11
70.0
21
55.0
0
LINE
8
0
10
70.0
20
55.0
11
30.0
21
55.0
0
LINE
8
0
10
30.0
20
55.0
11
30.0
21
25.0
0
CIRCLE
8
0
10
10.0
20
10.0
40
3.0
0
CIRCLE
8
0
10
90.0
20
10.0
40
3.0
0
CIRCLE
8
0
10
90.0
20
70.0
40
3.0
0
CIRCLE
8
0
10
10.0
20
70.0
40
3.0
0
ENDSEC
0
EOF
