999
ContourCAM island sample: 100x80 plate, centred 60x60 pocket with a centred
999
20x20 SOLID island standing in it (a boss). LINE loops only, no holes. The
999
island is a polyline loop (not a CIRCLE) so it is treated as standing material
999
to clear around, not a drilled hole. Units: millimetres.
0
SECTION
2
HEADER
9
$INSUNITS
70
4
0
ENDSEC
0
SECTION
2
ENTITIES
0
LINE
8
0
10
0.0
20
0.0
11
100.0
21
0.0
0
LINE
8
0
10
100.0
20
0.0
11
100.0
21
80.0
0
LINE
8
0
10
100.0
20
80.0
11
0.0
21
80.0
0
LINE
8
0
10
0.0
20
80.0
11
0.0
21
0.0
0
LINE
8
0
10
20.0
20
10.0
11
80.0
21
10.0
0
LINE
8
0
10
80.0
20
10.0
11
80.0
21
70.0
0
LINE
8
0
10
80.0
20
70.0
11
20.0
21
70.0
0
LINE
8
0
10
20.0
20
70.0
11
20.0
21
10.0
0
LINE
8
0
10
40.0
20
30.0
11
60.0
21
30.0
0
LINE
8
0
10
60.0
20
30.0
11
60.0
21
50.0
0
LINE
8
0
10
60.0
20
50.0
11
40.0
21
50.0
0
LINE
8
0
10
40.0
20
50.0
11
40.0
21
30.0
0
ENDSEC
0
EOF
